<svg width="115" height="48" viewBox="0 0 115 48" fill="none" xmlns="http://www.w3.org/2000/svg">
<path d="M8.48483 0.442139V27.5441H19.1545V33.8203H0.338623V0.442139H8.48483Z" fill="#172C4F"/>
<path d="M43.5465 6.95538H31.2085V13.7057H42.1156V19.9819H31.2085V27.307H43.5465V33.8203H23.0623V0.442139H43.5465V6.95538Z" fill="#172C4F"/>
<path d="M69.6547 27.9234H57.1741L55.1732 33.8203H46.647L58.7475 0.442139H68.1822L80.2828 33.8203H71.6616L69.6547 27.9234ZM63.4144 9.42674L59.3175 21.6472H67.5588L63.4144 9.42674Z" fill="#172C4F"/>
<path d="M114.001 17.1312C114.001 27.0226 107.144 33.8203 96.4739 33.8203H83.9458V0.442139H96.4739C107.144 0.442139 114.001 7.19244 114.001 17.1312ZM95.9454 26.7796C102.091 26.7796 105.713 23.2592 105.713 17.1253C105.713 10.9913 102.091 7.37616 95.9454 7.37616H92.0861V26.7736H95.9454V26.7796Z" fill="#172C4F"/>
<path d="M39.4672 45.8156H36.0532L35.4654 47.481H34.0701L36.9913 39.332H38.541L41.4622 47.481H40.055L39.4672 45.8156ZM37.7632 40.944L36.4272 44.7251H39.0932L37.7632 40.944Z" fill="#172C4F"/>
<path d="M52.9348 42.9908C52.9348 45.4977 51.2188 47.0326 48.6064 47.0326H45.9404V38.8955H48.6064C51.2188 38.8896 52.9348 40.472 52.9348 42.9908ZM48.6064 45.9422C50.5301 45.9422 51.5632 44.8398 51.5632 42.9908C51.5632 41.1298 50.5301 39.9801 48.6064 39.9801H47.2823V45.9422H48.6064Z" fill="#172C4F"/>
<path d="M62.7552 39.338H64.1624L61.0987 47.4751H59.549L56.4734 39.338H57.9043L60.3209 46.106L62.7552 39.338Z" fill="#172C4F"/>
<path d="M68.5383 39.338H69.8736V47.4751H68.5383V39.338Z" fill="#172C4F"/>
<path d="M77.6869 47.5583C76.0541 47.5583 74.8013 46.6693 74.8013 45.2291H76.2322C76.2916 45.8988 76.7606 46.4381 77.6869 46.4381C78.625 46.4381 79.1534 45.9344 79.1534 45.241C79.1534 43.2734 74.825 44.5476 74.825 41.5488C74.825 40.1205 75.965 39.2315 77.6275 39.2315C79.1891 39.2315 80.2934 40.0494 80.4062 41.448H78.9278C78.8803 40.8969 78.3994 40.3931 77.5562 40.3694C76.7844 40.3457 76.1847 40.7191 76.1847 41.5073C76.1847 43.3445 80.5012 42.2007 80.5012 45.1758C80.5012 46.3907 79.5037 47.5583 77.6869 47.5583Z" fill="#172C4F"/>
<path d="M89.047 47.5578C86.7492 47.5578 84.8789 45.8392 84.8789 43.3856C84.8789 40.9498 86.7433 39.2252 89.047 39.2252C91.3686 39.2252 93.2151 40.9439 93.2151 43.3856C93.2151 45.8392 91.3745 47.5578 89.047 47.5578ZM89.047 46.4022C90.6679 46.4022 91.8376 45.2287 91.8376 43.3915C91.8376 41.5543 90.662 40.4045 89.047 40.4045C87.4261 40.4045 86.2564 41.5543 86.2564 43.3915C86.2564 45.2287 87.432 46.4022 89.047 46.4022Z" fill="#172C4F"/>
<path d="M100.784 39.338C102.72 39.338 103.67 40.4521 103.67 41.7737C103.67 42.7338 103.153 43.7651 101.782 44.1029L103.8 47.4751H102.203L100.327 44.2214H99.3057V47.4751H97.9697V39.338H100.784ZM100.784 40.4284H99.3057V43.1546H100.784C101.829 43.1546 102.298 42.5798 102.298 41.7737C102.298 40.9559 101.829 40.4284 100.784 40.4284Z" fill="#172C4F"/>
<path d="M111.187 47.5583C109.554 47.5583 108.301 46.6693 108.301 45.2291H109.732C109.792 45.8988 110.261 46.4381 111.187 46.4381C112.125 46.4381 112.653 45.9344 112.653 45.241C112.653 43.2734 108.325 44.5476 108.325 41.5488C108.325 40.1205 109.465 39.2315 111.128 39.2315C112.689 39.2315 113.793 40.0494 113.906 41.448H112.428C112.38 40.8969 111.899 40.3931 111.056 40.3694C110.284 40.3457 109.685 40.7191 109.685 41.5073C109.685 43.3445 114.001 42.2007 114.001 45.1758C114.001 46.3907 113.004 47.5583 111.187 47.5583Z" fill="#172C4F"/>
</svg>
